<?xml version="1.0" encoding="utf-8"?>
<!-- Generator: Adobe Illustrator 25.0.1, SVG Export Plug-In . SVG Version: 6.00 Build 0)  -->
<svg version="1.1" id="Calque_1" xmlns="http://www.w3.org/2000/svg" xmlns:xlink="http://www.w3.org/1999/xlink" x="0px" y="0px"
	 viewBox="0 0 400 400" style="enable-background:new 0 0 400 400;" xml:space="preserve">
<style type="text/css">
	.st0{fill:#1D1D1B;}
	.st1{fill:url(#SVGID_1_);}
	.st2{opacity:0.5;}
	.st3{fill:#FFFFFF;}
	.st4{fill:url(#SVGID_2_);}
	.st5{fill:#015578;}
</style>
<g>
	<path class="st0" d="M99.3,348.3c-0.2-2.3-1.9-3.4-6.1-3.4c-4,0-5.3,1.3-5.3,2.8s1.3,2.1,3.3,2.4l5.2,0.6c3,0.4,5.1,1.3,5.1,3.8
		c0,3.8-5,4.1-7.8,4.1c-4.5,0-7.7-1.3-7.9-4.8h1.5c0.2,1.4,0.5,3.7,6.8,3.7c4.3,0,5.9-1.1,5.9-3.1c0-1.6-1.4-2.3-3.3-2.5l-5.7-0.6
		c-2-0.2-4.6-1-4.6-3.5c0-1.6,1.3-3.9,6.8-3.9c6,0,7.4,2.3,7.5,4.5h-1.4V348.3z"/>
	<path class="st0" d="M111.2,338.8h1.5v2.9h-1.5V338.8z M111.2,344.3h1.5v13.9h-1.5V344.3z"/>
	<path class="st0" d="M123.7,344.3h1.5v2.8h0.1c1-1.7,3.1-3.2,6.8-3.2c7.4,0,7.4,4.1,7.4,5.7v8.6H138v-8.5c0-2.8-1.2-4.7-6-4.7
		s-6.9,2.5-6.9,5.1v8.1h-1.5L123.7,344.3L123.7,344.3z"/>
	<path class="st0" d="M165.4,348.6c-0.2-1.8-3-3.7-6.9-3.7c-5.1,0-7.7,3.1-7.7,6.4c0,2.2,1.8,6.1,7.7,6.1c3.3,0,6.4-1.3,7.1-4.2h1.5
		c-0.9,3.6-4.5,5.3-8.6,5.3c-5.3,0-9.2-2.9-9.2-7.2c0-4.9,4.2-7.5,9.2-7.5s8.1,2.4,8.3,4.8L165.4,348.6L165.4,348.6z"/>
	<path class="st0" d="M177.5,351.5c0.1,3.5,2.9,6,7.7,6c5,0,6.3-2.7,6.9-4h1.5c-1.4,3.5-4.2,5-8.5,5c-5.5,0-9-2.9-9-7.5
		c0-2.9,2.2-7.3,9.1-7.3c5.6,0,8.9,3.2,8.9,7.6h-16.6V351.5z M192.4,350.4c-0.6-3.8-3.7-5.5-7.4-5.5c-4.2,0-6.8,2.2-7.4,5.5H192.4z"
		/>
	<path class="st0" d="M225.4,358.1H224v-16.9c-2,1.5-4.7,2.3-7,2.5v-1.1c2.3-0.1,6.2-1.5,7.2-3.5h1.3v19H225.4z"/>
	<path class="st0" d="M244,347.8L244,347.8c-3.6-0.7-4.6-2.3-4.6-4.4c0-3.7,4.2-4.7,7.9-4.7c3.6,0,7.9,1,7.9,4.7
		c0,2.1-1,3.7-4.6,4.4v0.1c2.4,0.4,5.7,1.5,5.7,5.2c0,3.5-3,5.6-8.9,5.6s-8.9-2.1-8.9-5.6C238.3,349.2,241.6,348.1,244,347.8z
		 M247.2,357.5c3.2,0,7.5-0.8,7.5-4.5c0-2.9-2.3-4.6-7.5-4.6c-5.1,0-7.5,1.7-7.5,4.6C239.7,355.6,242,357.5,247.2,357.5z
		 M247.2,347.2c3,0,6.4-0.6,6.4-3.7c0-3-3.5-3.8-6.4-3.8c-3.1,0-6.4,0.7-6.4,3.8C240.8,346.6,244.3,347.2,247.2,347.2z"/>
	<path class="st0" d="M271.8,347.8L271.8,347.8c-3.6-0.7-4.6-2.3-4.6-4.4c0-3.7,4.2-4.7,7.9-4.7c3.6,0,7.9,1,7.9,4.7
		c0,2.1-1,3.7-4.6,4.4v0.1c2.4,0.4,5.7,1.5,5.7,5.2c0,3.5-3,5.6-8.9,5.6s-8.9-2.1-8.9-5.6C266.1,349.2,269.4,348.1,271.8,347.8z
		 M275,357.5c3.2,0,7.5-0.8,7.5-4.5c0-2.9-2.3-4.6-7.5-4.6c-5.1,0-7.5,1.7-7.5,4.6C267.6,355.6,269.8,357.5,275,357.5z M275,347.2
		c3,0,6.4-0.6,6.4-3.7c0-3-3.5-3.8-6.4-3.8c-3.1,0-6.4,0.7-6.4,3.8C268.6,346.6,272.1,347.2,275,347.2z"/>
	<path class="st0" d="M301.7,347.4c3.4,0,7.8,0,7.8-3.6c0-3.2-3-4.1-6.2-4.1c-4.2,0-7,1.6-7,5.3h-1.5c0.2-4.5,3.5-6.4,8.5-6.4
		c4.8,0,7.7,1.8,7.7,5c0,2.8-2.1,4-4.9,4.2v0.1c2.2,0.1,5.5,1.2,5.5,5.2c0,3.2-2.8,5.5-8.6,5.5c-5.4,0-8.7-2.1-8.8-6.8h1.5
		c0,4,2.7,5.7,7.5,5.7c3.1,0,6.9-0.8,6.9-4.7c0-4.3-5.3-4.3-8.4-4.3V347.4z"/>
</g>
<g>
	
		<linearGradient id="SVGID_1_" gradientUnits="userSpaceOnUse" x1="198.4" y1="350.3556" x2="198.4" y2="152" gradientTransform="matrix(1 0 0 -1 0 402)">
		<stop  offset="0" style="stop-color:#009CD1"/>
		<stop  offset="2.990658e-02" style="stop-color:#009BCF"/>
		<stop  offset="1" style="stop-color:#015578"/>
	</linearGradient>
	<path class="st1" d="M177.1,229c0,0-43-58-35.7-98.4c8.1-44.5,57-41.1,57-41.1s43.8-3.4,53.3,38.8c9.4,42.2-32.3,100.5-32.3,100.5
		V250h91.7v-46.6l-76.6,28.7c0,0,63.7-59.3,54.8-111.6C280,65.1,233.2,58,217.9,53.6s-40.5,0-40.5,0s-58.1,7.3-70.7,63.5
		s54.7,114.3,54.7,114.3l-75.7-27.7V250h91.2v-21H177.1z"/>
	<g class="st2">
		<g>
			<g>
				<path class="st3" d="M111.7,102.2c-0.9,2-1.7,4.1-2.4,6.2c14.9-2.3,32.3-5.1,51-8.5c16.8-11.8,38.2-10.3,38.2-10.3
					s4.5-0.3,10.8,0.6c19.1-4.2,38.5-8.9,57.2-14.1c-1.8-1.6-3.6-3.1-5.4-4.5C209,85.9,152,96,111.7,102.2z"/>
				<g>
					<path class="st3" d="M105.6,125.1c-0.2,2-0.3,3.9-0.3,5.9c11.1-1.7,23.8-3.7,37.5-6c0.6-2.2,1.4-4.3,2.2-6.2
						C130.6,121.2,117.3,123.3,105.6,125.1z"/>
					<path class="st3" d="M234.7,100.3c1.8,1.4,3.5,2.9,5.1,4.7c13.8-3.4,27.4-7.1,40.6-11.1c-1-1.8-2-3.5-3.1-5.1
						C263.6,92.9,249.2,96.8,234.7,100.3z"/>
				</g>
			</g>
		</g>
		<g>
			<g>
				<g>
					<path class="st3" d="M106.8,146.8c0.4,1.9,0.8,3.8,1.3,5.6c9.9-1.5,20.9-3.2,32.8-5.2c-0.2-1.9-0.3-3.9-0.3-5.8
						C128.4,143.5,117,145.3,106.8,146.8z"/>
					<path class="st3" d="M248.8,118.8c0.7,1.7,1.4,3.5,1.9,5.4c12.7-3.3,25.2-6.8,37.3-10.6c-0.5-1.9-1-3.8-1.5-5.6
						C274.3,111.9,261.6,115.5,248.8,118.8z"/>
				</g>
				<g>
					<path class="st3" d="M290.2,128.9c-11.9,3.8-24.4,7.4-37.1,10.8c0.1,2,0,4-0.1,6c12.7-3.3,25.1-6.9,37.1-10.7
						C290.2,132.9,290.3,130.9,290.2,128.9z"/>
					<path class="st3" d="M113.6,167.8c0.8,1.8,1.6,3.7,2.5,5.4c9.1-1.4,19-3,29.4-4.8c-0.6-1.9-1.1-3.7-1.6-5.6
						C133.1,164.7,122.9,166.3,113.6,167.8z"/>
				</g>
			</g>
		</g>
		<path class="st3" d="M126.2,80.2c-2,2.1-3.9,4.3-5.7,6.8c8.8-1.4,18.2-2.9,28.1-4.7c29.6-5.2,63.3-11.9,96-20.2
			c-3.2-1.4-6.4-2.6-9.4-3.6C196.9,67.9,157.9,75.1,126.2,80.2z"/>
	</g>
</g>
<linearGradient id="SVGID_2_" gradientUnits="userSpaceOnUse" x1="199.3" y1="299.5" x2="199.3" y2="165.5" gradientTransform="matrix(1 0 0 -1 0 402)">
	<stop  offset="0" style="stop-color:#009CD1"/>
	<stop  offset="1" style="stop-color:#015578"/>
</linearGradient>
<path class="st4" d="M222,157.8h7.2v-18.9h-18.9v18.9h7c-1.2,6.2-5.1,13.9-16.8,17.1v-57h6.3l-9-15.4l-9,15.4h6.3V195
	c-10.2-7.8-13.6-21.6-14.8-30.2c3-1.2,5.1-4.1,5.1-7.5c0-4.4-3.6-8-8-8s-8,3.6-8,8c0,3.8,2.6,7,6.2,7.8c0.4,2.8,1,6.2,1.9,9.8
	c3.3,11.9,9.3,20.8,17.6,25.8v14.1c-4.8,1.2-8.3,5.5-8.3,10.7c0,6.1,4.9,11,11,11s11-4.9,11-11c0-5.2-3.5-9.5-8.3-10.7v-35.1
	C216.1,176.2,220.8,165.8,222,157.8z"/>
<g>
	<path class="st5" d="M107,307.1c0,3.5,1.5,6.1,3.8,7.9c2.2,1.6,5.3,2.4,8.6,2.4c4.5,0,10.9-1.9,10.9-7.5c0-5.4-7.2-6.5-11.3-7.5
		c-14.5-3.7-32.7-4.1-32.7-23.1c0-17,18.3-21.6,32.2-21.6c15.5,0,31.7,4.5,32.5,22.8h-21.3c0-3-1.1-4.9-3-6.1
		c-1.9-1.2-4.5-1.8-7.3-1.8c-3.8,0-9.9,0.4-9.9,5.3c0,6.7,15.5,7.9,26.1,10.2c14.3,2.9,17.9,13.2,17.9,19
		c0,18.9-17.9,25.1-33.8,25.1c-16.7,0-33.8-5.6-34.5-25.3H107V307.1z"/>
	<path class="st5" d="M180.2,300.7c0.4,9.6,6,16,15.8,16c5.6,0,11-2.6,13.2-7.7h21.6c-4.2,16.3-19.3,23.4-35,23.4
		c-23,0-38.6-13.9-38.6-37.5c0-21.6,17.3-37.1,38-37.1c25.3,0,37.9,19,36.8,42.9L180.2,300.7L180.2,300.7z M208.8,287.8
		c-0.4-7.9-6-14.4-13.7-14.4c-8.2,0-13.6,5.8-14.9,14.4H208.8z"/>
	<path class="st5" d="M259.5,300.7c0.4,9.6,6,16,15.8,16c5.6,0,11-2.6,13.2-7.7H310c-4.2,16.3-19.3,23.4-35,23.4
		c-23,0-38.6-13.9-38.6-37.5c0-21.6,17.3-37.1,38-37.1c25.3,0,37.9,19,36.8,42.9L259.5,300.7L259.5,300.7z M288.1,287.8
		c-0.4-7.9-6-14.4-13.7-14.4c-8.2,0-13.6,5.8-14.9,14.4H288.1z"/>
</g>
</svg>
